<svg width="61" height="14" viewBox="0 0 61 14" fill="none" xmlns="http://www.w3.org/2000/svg">
<path d="M1.22637e-05 13L1.20001 0.279999H5.20001L7.82001 7.38L7.88001 7.62L7.92001 7.38L10.68 0.279999H14.68L15.68 13H12.08L11.68 5.3L11.62 4.96H11.58L11.48 5.3L9.08001 11.8H6.68001L4.26001 5.3L4.18001 4.96H4.12001L4.06001 5.3L3.60001 13H1.22637e-05ZM17.4852 13V0.279999H26.4252V2.86H20.8852V6H25.8252V8.58H20.8852V13H17.4852ZM28.2274 13V-7.15256e-07H31.4274V13H28.2274ZM38.6227 13.18C37.516 13.18 36.556 12.96 35.7427 12.52C34.9427 12.08 34.3227 11.4533 33.8827 10.64C33.4427 9.82667 33.2227 8.86667 33.2227 7.76C33.2227 6.09333 33.7027 4.81333 34.6627 3.92C35.636 3.01333 36.9427 2.56 38.5827 2.56C40.2227 2.56 41.5293 3.01333 42.5027 3.92C43.476 4.82667 43.9627 6.12 43.9627 7.8C43.9627 8.89333 43.7493 9.84667 43.3227 10.66C42.896 11.46 42.2827 12.08 41.4827 12.52C40.6827 12.96 39.7293 13.18 38.6227 13.18ZM38.6227 10.5C39.2893 10.5 39.796 10.2533 40.1427 9.76C40.5027 9.26667 40.6827 8.61333 40.6827 7.8C40.6827 6.93333 40.4893 6.28667 40.1027 5.86C39.7293 5.42 39.2227 5.2 38.5827 5.2C37.9427 5.2 37.4293 5.42 37.0427 5.86C36.6693 6.28667 36.4827 6.92667 36.4827 7.78C36.4827 8.60667 36.676 9.26667 37.0627 9.76C37.4493 10.2533 37.9693 10.5 38.6227 10.5ZM47.1358 13L44.9758 2.76H48.1758L49.3958 9.58L51.2958 2.96H54.4958L56.3958 9.58L57.6158 2.76H60.8158L58.6558 13H54.6758L52.9358 6.84L52.8958 6.64L52.8558 6.84L51.1158 13H47.1358Z" fill="white"/>
</svg>
